<svg id="visual" viewBox="0 0 900 600" width="900" height="600" xmlns="http://www.w3.org/2000/svg" xmlns:xlink="http://www.w3.org/1999/xlink" version="1.1"><rect x="0" y="0" width="900" height="600" fill="#4682b4"></rect><path d="M0 437L10.7 428C21.3 419 42.7 401 64.2 399.2C85.7 397.3 107.3 411.7 128.8 417.5C150.3 423.3 171.7 420.7 193 413.8C214.3 407 235.7 396 257 398.2C278.3 400.3 299.7 415.7 321.2 425C342.7 434.3 364.3 437.7 385.8 442.2C407.3 446.7 428.7 452.3 450 453C471.3 453.7 492.7 449.3 514.2 442.3C535.7 435.3 557.3 425.7 578.8 423.2C600.3 420.7 621.7 425.3 643 427.2C664.3 429 685.7 428 707 419.3C728.3 410.7 749.7 394.3 771.2 393.5C792.7 392.7 814.3 407.3 835.8 415.8C857.3 424.3 878.7 426.7 889.3 427.8L900 429L900 601L889.3 601C878.7 601 857.3 601 835.8 601C814.3 601 792.7 601 771.2 601C749.7 601 728.3 601 707 601C685.7 601 664.3 601 643 601C621.7 601 600.3 601 578.8 601C557.3 601 535.7 601 514.2 601C492.7 601 471.3 601 450 601C428.7 601 407.3 601 385.8 601C364.3 601 342.7 601 321.2 601C299.7 601 278.3 601 257 601C235.7 601 214.3 601 193 601C171.7 601 150.3 601 128.8 601C107.3 601 85.7 601 64.2 601C42.7 601 21.3 601 10.7 601L0 601Z" fill="#4682b4"></path><path d="M0 458L10.7 459.5C21.3 461 42.7 464 64.2 468.2C85.7 472.3 107.3 477.7 128.8 473.2C150.3 468.7 171.7 454.3 193 442.8C214.3 431.3 235.7 422.7 257 421.2C278.3 419.7 299.7 425.3 321.2 434C342.7 442.7 364.3 454.3 385.8 452.2C407.3 450 428.7 434 450 432.2C471.3 430.3 492.7 442.7 514.2 448.8C535.7 455 557.3 455 578.8 451.2C600.3 447.3 621.7 439.7 643 440.7C664.3 441.7 685.7 451.3 707 460.2C728.3 469 749.7 477 771.2 470.3C792.7 463.7 814.3 442.3 835.8 435C857.3 427.7 878.7 434.3 889.3 437.7L900 441L900 601L889.3 601C878.7 601 857.3 601 835.8 601C814.3 601 792.7 601 771.2 601C749.7 601 728.3 601 707 601C685.7 601 664.3 601 643 601C621.7 601 600.3 601 578.8 601C557.3 601 535.7 601 514.2 601C492.7 601 471.3 601 450 601C428.7 601 407.3 601 385.8 601C364.3 601 342.7 601 321.2 601C299.7 601 278.3 601 257 601C235.7 601 214.3 601 193 601C171.7 601 150.3 601 128.8 601C107.3 601 85.7 601 64.2 601C42.7 601 21.3 601 10.7 601L0 601Z" fill="#3e6f9f"></path><path d="M0 468L10.7 475C21.3 482 42.7 496 64.2 498.7C85.7 501.3 107.3 492.7 128.8 482C150.3 471.3 171.7 458.7 193 459.3C214.3 460 235.7 474 257 475.7C278.3 477.3 299.7 466.7 321.2 461.8C342.7 457 364.3 458 385.8 456C407.3 454 428.7 449 450 447.7C471.3 446.3 492.7 448.7 514.2 453.8C535.7 459 557.3 467 578.8 476.3C600.3 485.7 621.7 496.3 643 492.2C664.3 488 685.7 469 707 463.3C728.3 457.7 749.7 465.3 771.2 470.2C792.7 475 814.3 477 835.8 472.2C857.3 467.3 878.7 455.7 889.3 449.8L900 444L900 601L889.3 601C878.7 601 857.3 601 835.8 601C814.3 601 792.7 601 771.2 601C749.7 601 728.3 601 707 601C685.7 601 664.3 601 643 601C621.7 601 600.3 601 578.8 601C557.3 601 535.7 601 514.2 601C492.7 601 471.3 601 450 601C428.7 601 407.3 601 385.8 601C364.3 601 342.7 601 321.2 601C299.7 601 278.3 601 257 601C235.7 601 214.3 601 193 601C171.7 601 150.3 601 128.8 601C107.3 601 85.7 601 64.2 601C42.7 601 21.3 601 10.7 601L0 601Z" fill="#355d89"></path><path d="M0 503L10.7 506.7C21.3 510.3 42.7 517.7 64.2 520C85.7 522.3 107.3 519.7 128.8 519C150.3 518.3 171.7 519.7 193 520.8C214.3 522 235.7 523 257 520.2C278.3 517.3 299.7 510.7 321.2 504.3C342.7 498 364.3 492 385.8 491.5C407.3 491 428.7 496 450 495.2C471.3 494.3 492.7 487.7 514.2 492.7C535.7 497.7 557.3 514.3 578.8 518.3C600.3 522.3 621.7 513.7 643 507.3C664.3 501 685.7 497 707 500.7C728.3 504.3 749.7 515.7 771.2 517.5C792.7 519.3 814.3 511.7 835.8 506.2C857.3 500.7 878.7 497.3 889.3 495.7L900 494L900 601L889.3 601C878.7 601 857.3 601 835.8 601C814.3 601 792.7 601 771.2 601C749.7 601 728.3 601 707 601C685.7 601 664.3 601 643 601C621.7 601 600.3 601 578.8 601C557.3 601 535.7 601 514.2 601C492.7 601 471.3 601 450 601C428.7 601 407.3 601 385.8 601C364.3 601 342.7 601 321.2 601C299.7 601 278.3 601 257 601C235.7 601 214.3 601 193 601C171.7 601 150.3 601 128.8 601C107.3 601 85.7 601 64.2 601C42.7 601 21.3 601 10.7 601L0 601Z" fill="#2c4b75"></path><path d="M0 510L10.7 514.7C21.3 519.3 42.7 528.7 64.2 535.8C85.7 543 107.3 548 128.8 546.2C150.3 544.3 171.7 535.7 193 536.5C214.3 537.3 235.7 547.7 257 546.8C278.3 546 299.7 534 321.2 532.5C342.7 531 364.3 540 385.8 545.2C407.3 550.3 428.7 551.7 450 551.7C471.3 551.7 492.7 550.3 514.2 550.2C535.7 550 557.3 551 578.8 552.5C600.3 554 621.7 556 643 557.3C664.3 558.7 685.7 559.3 707 558.8C728.3 558.3 749.7 556.7 771.2 554.7C792.7 552.7 814.3 550.3 835.8 545.7C857.3 541 878.7 534 889.3 530.5L900 527L900 601L889.3 601C878.7 601 857.3 601 835.8 601C814.3 601 792.7 601 771.2 601C749.7 601 728.3 601 707 601C685.7 601 664.3 601 643 601C621.7 601 600.3 601 578.8 601C557.3 601 535.7 601 514.2 601C492.7 601 471.3 601 450 601C428.7 601 407.3 601 385.8 601C364.3 601 342.7 601 321.2 601C299.7 601 278.3 601 257 601C235.7 601 214.3 601 193 601C171.7 601 150.3 601 128.8 601C107.3 601 85.7 601 64.2 601C42.7 601 21.3 601 10.7 601L0 601Z" fill="#233a60"></path><path d="M0 568L10.7 568C21.3 568 42.7 568 64.2 568.7C85.7 569.3 107.3 570.7 128.8 573.5C150.3 576.3 171.7 580.7 193 580.8C214.3 581 235.7 577 257 571.8C278.3 566.7 299.7 560.3 321.2 559.8C342.7 559.3 364.3 564.7 385.8 569.2C407.3 573.7 428.7 577.3 450 577.5C471.3 577.7 492.7 574.3 514.2 568C535.7 561.7 557.3 552.3 578.8 553.7C600.3 555 621.7 567 643 567.5C664.3 568 685.7 557 707 556.5C728.3 556 749.7 566 771.2 572.2C792.7 578.3 814.3 580.7 835.8 580.8C857.3 581 878.7 579 889.3 578L900 577L900 601L889.3 601C878.7 601 857.3 601 835.8 601C814.3 601 792.7 601 771.2 601C749.7 601 728.3 601 707 601C685.7 601 664.3 601 643 601C621.7 601 600.3 601 578.8 601C557.3 601 535.7 601 514.2 601C492.7 601 471.3 601 450 601C428.7 601 407.3 601 385.8 601C364.3 601 342.7 601 321.2 601C299.7 601 278.3 601 257 601C235.7 601 214.3 601 193 601C171.7 601 150.3 601 128.8 601C107.3 601 85.7 601 64.2 601C42.7 601 21.3 601 10.7 601L0 601Z" fill="#192a4c"></path></svg>